<?xml version="1.0" encoding="UTF-8"?>
<svg xmlns="http://www.w3.org/2000/svg" xmlns:xlink="http://www.w3.org/1999/xlink" fill-opacity="1" color-rendering="auto" color-interpolation="auto" stroke="black" text-rendering="auto" stroke-linecap="square" width="172" stroke-miterlimit="10" stroke-opacity="1" shape-rendering="auto" fill="black" stroke-dasharray="none" font-weight="normal" stroke-width="1" height="180" font-family="'Dialog'" font-style="normal" stroke-linejoin="miter" font-size="12" stroke-dashoffset="0" image-rendering="auto">
  <!--Generated by ySVG-->
  <defs id="genericDefs"/>
  <g>
    <defs id="defs1">
      <clipPath clipPathUnits="userSpaceOnUse" id="clipPath1">
        <path d="M0 0 L172 0 L172 180 L0 180 L0 0 Z"/>
      </clipPath>
      <clipPath clipPathUnits="userSpaceOnUse" id="clipPath2">
        <path d="M-55 -83 L117 -83 L117 97 L-55 97 L-55 -83 Z"/>
      </clipPath>
      <clipPath clipPathUnits="userSpaceOnUse" id="clipPath3">
        <path d="M-53.6122 -132.795 L116.5624 -132.795 L116.5624 47.205 L-53.6122 47.205 L-53.6122 -132.795 Z"/>
      </clipPath>
      <clipPath clipPathUnits="userSpaceOnUse" id="clipPath4">
        <path d="M-80.7054 -53.8295 L89.2602 -53.8295 L89.2602 126.1705 L-80.7054 126.1705 L-80.7054 -53.8295 Z"/>
      </clipPath>
      <clipPath clipPathUnits="userSpaceOnUse" id="clipPath5">
        <path d="M-39.3451 -35.6814 L132.6549 -35.6814 L132.6549 144.3186 L-39.3451 144.3186 L-39.3451 -35.6814 Z"/>
      </clipPath>
      <clipPath clipPathUnits="userSpaceOnUse" id="clipPath6">
        <path d="M-109.4025 -113.9467 L62.5975 -113.9467 L62.5975 66.0533 L-109.4025 66.0533 L-109.4025 -113.9467 Z"/>
      </clipPath>
      <clipPath clipPathUnits="userSpaceOnUse" id="clipPath7">
        <path d="M-133.1169 -69.6291 L38.8831 -69.6291 L38.8831 110.3709 L-133.1169 110.3709 L-133.1169 -69.6291 Z"/>
      </clipPath>
      <clipPath clipPathUnits="userSpaceOnUse" id="clipPath8">
        <path d="M-151.9866 -96.9492 L20.0134 -96.9492 L20.0134 83.0508 L-151.9866 83.0508 L-151.9866 -96.9492 Z"/>
      </clipPath>
      <clipPath clipPathUnits="userSpaceOnUse" id="clipPath9">
        <path d="M-16.4754 -74.9953 L155.5246 -74.9953 L155.5246 105.0047 L-16.4754 105.0047 L-16.4754 -74.9953 Z"/>
      </clipPath>
    </defs>
    <g fill="white" transform="translate(55,83)" stroke="white">
      <rect x="-55" width="172" height="180" y="-83" clip-path="url(#clipPath2)" stroke="none"/>
    </g>
    <g transform="matrix(1.0107,0,0,1,54.1873,132.795)">
      <g clip-path="url(#clipPath3)">
        <svg opacity="1" margin-top="0" indent="0" writing-mode="lr-tb" stop-color="rgb(0, 0, 0)" shape-rendering="auto" glyph-orientation-horizontal="0deg" color-profile="auto" lighting-color="rgb(255, 255, 255)" color="rgb(0, 0, 0)" font-weight="400" alignment-baseline="auto" font-style="normal" version="1.1" color-interpolation-filters="linearrgb" text-anchor="start" stroke-linecap="butt" color-interpolation="srgb" font-variant="normal" margin-left="0" solid-color="rgb(0, 0, 0)" word-spacing="normal" fill-opacity="1" text-rendering="auto" clip-path="none" text-decoration="none" letter-spacing="normal" glyph-orientation-vertical="auto" margin-right="0" display="inline" font-size-adjust="none" margin-bottom="0" fill="rgb(0, 0, 0)" overflow="visible" font-stretch="normal" stroke-dasharray="none" stroke-miterlimit="4" stop-opacity="1" color-rendering="auto" font-size="12" mask="none" direction="ltr" baseline-shift="baseline" pointer-events="visiblepainted" enable-background="accumulate" fill-rule="nonzero" image-rendering="auto" solid-opacity="1" stroke-dashoffset="0" width="20cm" marker-end="none" clip="auto" cursor="auto" stroke="none" filter="none" visibility="visible" kerning="auto" stroke-width="1" font-family="&quot;Arial&quot;,&quot;Helvetica&quot;,sans-serif" flood-opacity="1" clip-rule="nonzero" src="none" height="20cm" text-align="inherit" line-height="normal" unicode-bidi="normal" stroke-linejoin="miter" stroke-opacity="1" flood-color="rgb(0, 0, 0)" dominant-baseline="auto" marker-start="none" marker-mid="none">
<path fill="#FFFF00" stroke-width="2" d="M 0,0 l 0,-24 a 24,24 0 0,0 -20,35 z" stroke="none" stroke-linejoin="round"/>
<path fill="#00FFFF" stroke-width="2" d="M 0,0 l -20,11 a 24,24 0 0,0 20,13 z" stroke="none" stroke-linejoin="round"/>
<path fill="#00FFFF" stroke-width="2" d="M 0,0 l 0,24 a 24,24 0 0,0 20,-13 z" stroke="none" stroke-linejoin="round"/>
<path fill="#FFFF00" stroke-width="2" d="M 0,0 l 20,11 a 24,24 0 0,0 -20,-35 z" stroke="none" stroke-linejoin="round"/>
</svg>
      </g>
    </g>
    <g font-size="17" stroke-miterlimit="1.45" font-family="sans-serif" transform="matrix(1,0,0,1,55,83)" stroke-linecap="butt">
      <text x="-21.1289" xml:space="preserve" y="56.4729" clip-path="url(#clipPath2)" stroke="none">Arg 1</text>
    </g>
    <g transform="matrix(1.012,0,0,1,81.6714,53.8295)">
      <g clip-path="url(#clipPath4)">
        <svg opacity="1" margin-top="0" indent="0" writing-mode="lr-tb" stop-color="rgb(0, 0, 0)" shape-rendering="auto" glyph-orientation-horizontal="0deg" color-profile="auto" lighting-color="rgb(255, 255, 255)" color="rgb(0, 0, 0)" font-weight="400" alignment-baseline="auto" font-style="normal" version="1.1" color-interpolation-filters="linearrgb" text-anchor="start" stroke-linecap="butt" color-interpolation="srgb" font-variant="normal" margin-left="0" solid-color="rgb(0, 0, 0)" word-spacing="normal" fill-opacity="1" text-rendering="auto" clip-path="none" text-decoration="none" letter-spacing="normal" glyph-orientation-vertical="auto" margin-right="0" display="inline" font-size-adjust="none" margin-bottom="0" fill="rgb(0, 0, 0)" overflow="visible" font-stretch="normal" stroke-dasharray="none" stroke-miterlimit="4" stop-opacity="1" color-rendering="auto" font-size="12" mask="none" direction="ltr" baseline-shift="baseline" pointer-events="visiblepainted" enable-background="accumulate" fill-rule="nonzero" image-rendering="auto" solid-opacity="1" stroke-dashoffset="0" width="20cm" marker-end="none" clip="auto" cursor="auto" stroke="none" filter="none" visibility="visible" kerning="auto" stroke-width="1" font-family="&quot;Arial&quot;,&quot;Helvetica&quot;,sans-serif" flood-opacity="1" clip-rule="nonzero" src="none" height="20cm" text-align="inherit" line-height="normal" unicode-bidi="normal" stroke-linejoin="miter" stroke-opacity="1" flood-color="rgb(0, 0, 0)" dominant-baseline="auto" marker-start="none" marker-mid="none">
<path fill="#00FFFF" stroke-width="2" d="M 0,0 l 0,-17 a 17,17 0 0,0 -14,25 z" stroke="none" stroke-linejoin="round"/>
<path fill="#00FF00" stroke-width="2" d="M 0,0 l -14,8 a 17,17 0 0,0 14,9 z" stroke="none" stroke-linejoin="round"/>
<path fill="#00FF00" stroke-width="2" d="M 0,0 l 0,22 a 22,22 0 0,0 12,-5 z" stroke="none" stroke-linejoin="round"/>
<path fill="#FFFF00" stroke-width="2" d="M 0,0 l 12,17 a 22,22 0 0,0 -12,-39 z" stroke="none" stroke-linejoin="round"/>
</svg>
      </g>
    </g>
    <g font-size="14" stroke-miterlimit="1.45" font-family="sans-serif" transform="matrix(1,0,0,1,55,83)" stroke-linecap="butt">
      <text x="12.5" xml:space="preserve" y="-23.671" clip-path="url(#clipPath2)" stroke="none">Arg 2</text>
    </g>
    <g transform="matrix(1,0,0,1,39.3451,35.6814)">
      <g clip-path="url(#clipPath5)">
        <svg opacity="1" margin-top="0" indent="0" writing-mode="lr-tb" stop-color="rgb(0, 0, 0)" shape-rendering="auto" glyph-orientation-horizontal="0deg" color-profile="auto" lighting-color="rgb(255, 255, 255)" color="rgb(0, 0, 0)" font-weight="400" alignment-baseline="auto" font-style="normal" version="1.1" color-interpolation-filters="linearrgb" text-anchor="start" stroke-linecap="butt" color-interpolation="srgb" font-variant="normal" margin-left="0" solid-color="rgb(0, 0, 0)" word-spacing="normal" fill-opacity="1" text-rendering="auto" clip-path="none" text-decoration="none" letter-spacing="normal" glyph-orientation-vertical="auto" margin-right="0" display="inline" font-size-adjust="none" margin-bottom="0" fill="rgb(0, 0, 0)" overflow="visible" font-stretch="normal" stroke-dasharray="none" stroke-miterlimit="4" stop-opacity="1" color-rendering="auto" font-size="12" mask="none" direction="ltr" baseline-shift="baseline" pointer-events="visiblepainted" enable-background="accumulate" fill-rule="nonzero" image-rendering="auto" solid-opacity="1" stroke-dashoffset="0" width="20cm" marker-end="none" clip="auto" cursor="auto" stroke="none" filter="none" visibility="visible" kerning="auto" stroke-width="1" font-family="&quot;Arial&quot;,&quot;Helvetica&quot;,sans-serif" flood-opacity="1" clip-rule="nonzero" src="none" height="20cm" text-align="inherit" line-height="normal" unicode-bidi="normal" stroke-linejoin="miter" stroke-opacity="1" flood-color="rgb(0, 0, 0)" dominant-baseline="auto" marker-start="none" marker-mid="none">
<path fill="#FFFF00" stroke-width="2" d="M 0,0 l 0,-20 a 20,20 0 1,0 0,40 z" stroke="none" stroke-linejoin="round"/>
<path fill="#00FF00" stroke-width="2" d="M 0,0 l 0,10 a 10,10 0 1,0 0,-20 z" stroke="none" stroke-linejoin="round"/>
</svg>
      </g>
    </g>
    <g font-size="11" stroke-miterlimit="1.45" font-family="sans-serif" transform="matrix(1,0,0,1,55,83)" stroke-linecap="butt">
      <text x="-33.8007" xml:space="preserve" y="-42.9975" clip-path="url(#clipPath2)" stroke="none">Arg 3</text>
    </g>
    <g transform="matrix(1,0,0,1,109.4025,113.9467)">
      <g clip-path="url(#clipPath6)">
        <svg opacity="1" margin-top="0" indent="0" writing-mode="lr-tb" stop-color="rgb(0, 0, 0)" shape-rendering="auto" glyph-orientation-horizontal="0deg" color-profile="auto" lighting-color="rgb(255, 255, 255)" color="rgb(0, 0, 0)" font-weight="400" alignment-baseline="auto" font-style="normal" version="1.1" color-interpolation-filters="linearrgb" text-anchor="start" stroke-linecap="butt" color-interpolation="srgb" font-variant="normal" margin-left="0" solid-color="rgb(0, 0, 0)" word-spacing="normal" fill-opacity="1" text-rendering="auto" clip-path="none" text-decoration="none" letter-spacing="normal" glyph-orientation-vertical="auto" margin-right="0" display="inline" font-size-adjust="none" margin-bottom="0" fill="rgb(0, 0, 0)" overflow="visible" font-stretch="normal" stroke-dasharray="none" stroke-miterlimit="4" stop-opacity="1" color-rendering="auto" font-size="12" mask="none" direction="ltr" baseline-shift="baseline" pointer-events="visiblepainted" enable-background="accumulate" fill-rule="nonzero" image-rendering="auto" solid-opacity="1" stroke-dashoffset="0" width="20cm" marker-end="none" clip="auto" cursor="auto" stroke="none" filter="none" visibility="visible" kerning="auto" stroke-width="1" font-family="&quot;Arial&quot;,&quot;Helvetica&quot;,sans-serif" flood-opacity="1" clip-rule="nonzero" src="none" height="20cm" text-align="inherit" line-height="normal" unicode-bidi="normal" stroke-linejoin="miter" stroke-opacity="1" flood-color="rgb(0, 0, 0)" dominant-baseline="auto" marker-start="none" marker-mid="none">
<path fill="#00FF00" stroke-width="2" d="M 0,0 l 0,-14 a 14,14 0 1,0 0,28 z" stroke="none" stroke-linejoin="round"/>
<path fill="#00FFFF" stroke-width="2" d="M 0,0 l 0,14 a 14,14 0 1,0 0,-28 z" stroke="none" stroke-linejoin="round"/>
</svg>
      </g>
    </g>
    <g font-size="10" stroke-miterlimit="1.45" font-family="sans-serif" transform="matrix(1,0,0,1,55,83)" stroke-linecap="butt">
      <text x="42.4518" xml:space="preserve" y="34.875" clip-path="url(#clipPath2)" stroke="none">Arg 4</text>
    </g>
    <g transform="matrix(1,0,0,1,133.1169,69.6291)">
      <g clip-path="url(#clipPath7)">
        <svg opacity="1" margin-top="0" indent="0" writing-mode="lr-tb" stop-color="rgb(0, 0, 0)" shape-rendering="auto" glyph-orientation-horizontal="0deg" color-profile="auto" lighting-color="rgb(255, 255, 255)" color="rgb(0, 0, 0)" font-weight="400" alignment-baseline="auto" font-style="normal" version="1.1" color-interpolation-filters="linearrgb" text-anchor="start" stroke-linecap="butt" color-interpolation="srgb" font-variant="normal" margin-left="0" solid-color="rgb(0, 0, 0)" word-spacing="normal" fill-opacity="1" text-rendering="auto" clip-path="none" text-decoration="none" letter-spacing="normal" glyph-orientation-vertical="auto" margin-right="0" display="inline" font-size-adjust="none" margin-bottom="0" fill="rgb(0, 0, 0)" overflow="visible" font-stretch="normal" stroke-dasharray="none" stroke-miterlimit="4" stop-opacity="1" color-rendering="auto" font-size="12" mask="none" direction="ltr" baseline-shift="baseline" pointer-events="visiblepainted" enable-background="accumulate" fill-rule="nonzero" image-rendering="auto" solid-opacity="1" stroke-dashoffset="0" width="20cm" marker-end="none" clip="auto" cursor="auto" stroke="none" filter="none" visibility="visible" kerning="auto" stroke-width="1" font-family="&quot;Arial&quot;,&quot;Helvetica&quot;,sans-serif" flood-opacity="1" clip-rule="nonzero" src="none" height="20cm" text-align="inherit" line-height="normal" unicode-bidi="normal" stroke-linejoin="miter" stroke-opacity="1" flood-color="rgb(0, 0, 0)" dominant-baseline="auto" marker-start="none" marker-mid="none">
<path fill="#00FF00" stroke-width="2" d="M 0,0 l 0,-14 a 14,14 0 1,0 0,28 z" stroke="none" stroke-linejoin="round"/>
</svg>
      </g>
    </g>
    <g font-size="5" stroke-miterlimit="1.45" font-family="sans-serif" transform="matrix(1,0,0,1,55,83)" stroke-linecap="butt">
      <text x="65.1415" xml:space="preserve" y="-11.4067" clip-path="url(#clipPath2)" stroke="none">Arg 5</text>
    </g>
    <g transform="matrix(1,0,0,1,151.9866,96.9492)">
      <g clip-path="url(#clipPath8)">
        <svg opacity="1" margin-top="0" indent="0" writing-mode="lr-tb" stop-color="rgb(0, 0, 0)" shape-rendering="auto" glyph-orientation-horizontal="0deg" color-profile="auto" lighting-color="rgb(255, 255, 255)" color="rgb(0, 0, 0)" font-weight="400" alignment-baseline="auto" font-style="normal" version="1.1" color-interpolation-filters="linearrgb" text-anchor="start" stroke-linecap="butt" color-interpolation="srgb" font-variant="normal" margin-left="0" solid-color="rgb(0, 0, 0)" word-spacing="normal" fill-opacity="1" text-rendering="auto" clip-path="none" text-decoration="none" letter-spacing="normal" glyph-orientation-vertical="auto" margin-right="0" display="inline" font-size-adjust="none" margin-bottom="0" fill="rgb(0, 0, 0)" overflow="visible" font-stretch="normal" stroke-dasharray="none" stroke-miterlimit="4" stop-opacity="1" color-rendering="auto" font-size="12" mask="none" direction="ltr" baseline-shift="baseline" pointer-events="visiblepainted" enable-background="accumulate" fill-rule="nonzero" image-rendering="auto" solid-opacity="1" stroke-dashoffset="0" width="20cm" marker-end="none" clip="auto" cursor="auto" stroke="none" filter="none" visibility="visible" kerning="auto" stroke-width="1" font-family="&quot;Arial&quot;,&quot;Helvetica&quot;,sans-serif" flood-opacity="1" clip-rule="nonzero" src="none" height="20cm" text-align="inherit" line-height="normal" unicode-bidi="normal" stroke-linejoin="miter" stroke-opacity="1" flood-color="rgb(0, 0, 0)" dominant-baseline="auto" marker-start="none" marker-mid="none">
<path fill="#00FF00" stroke-width="2" d="M 0,0 l 0,-10 a 10,10 0 1,0 0,20 z" stroke="none" stroke-linejoin="round"/>
</svg>
      </g>
    </g>
    <g font-size="3" stroke-miterlimit="1.45" font-family="sans-serif" transform="matrix(1,0,0,1,55,83)" stroke-linecap="butt">
      <text x="88.4014" xml:space="preserve" y="15.1277" clip-path="url(#clipPath2)" stroke="none">Arg 6</text>
    </g>
    <g transform="matrix(1,0,0,1,16.4754,74.9953)">
      <g clip-path="url(#clipPath9)">
        <svg opacity="1" margin-top="0" indent="0" writing-mode="lr-tb" stop-color="rgb(0, 0, 0)" shape-rendering="auto" glyph-orientation-horizontal="0deg" color-profile="auto" lighting-color="rgb(255, 255, 255)" color="rgb(0, 0, 0)" font-weight="400" alignment-baseline="auto" font-style="normal" version="1.1" color-interpolation-filters="linearrgb" text-anchor="start" stroke-linecap="butt" color-interpolation="srgb" font-variant="normal" margin-left="0" solid-color="rgb(0, 0, 0)" word-spacing="normal" fill-opacity="1" text-rendering="auto" clip-path="none" text-decoration="none" letter-spacing="normal" glyph-orientation-vertical="auto" margin-right="0" display="inline" font-size-adjust="none" margin-bottom="0" fill="rgb(0, 0, 0)" overflow="visible" font-stretch="normal" stroke-dasharray="none" stroke-miterlimit="4" stop-opacity="1" color-rendering="auto" font-size="12" mask="none" direction="ltr" baseline-shift="baseline" pointer-events="visiblepainted" enable-background="accumulate" fill-rule="nonzero" image-rendering="auto" solid-opacity="1" stroke-dashoffset="0" width="20cm" marker-end="none" clip="auto" cursor="auto" stroke="none" filter="none" visibility="visible" kerning="auto" stroke-width="1" font-family="&quot;Arial&quot;,&quot;Helvetica&quot;,sans-serif" flood-opacity="1" clip-rule="nonzero" src="none" height="20cm" text-align="inherit" line-height="normal" unicode-bidi="normal" stroke-linejoin="miter" stroke-opacity="1" flood-color="rgb(0, 0, 0)" dominant-baseline="auto" marker-start="none" marker-mid="none">
<path fill="#00FF00" stroke-width="2" d="M 0,0 l 0,10 a 10,10 0 1,0 0,-20 z" stroke="none" stroke-linejoin="round"/>
</svg>
      </g>
    </g>
    <g font-size="3" stroke-miterlimit="1.45" font-family="sans-serif" transform="matrix(1,0,0,1,55,83)" stroke-linecap="butt">
      <text x="-37.1098" xml:space="preserve" y="-6.8262" clip-path="url(#clipPath2)" stroke="none">Arg 7</text>
    </g>
    <g fill="rgb(153,153,153)" stroke-width="2" stroke-miterlimit="1.45" transform="matrix(1,0,0,1,55,83)" stroke-linecap="butt" stroke="rgb(153,153,153)">
      <path fill="none" d="M1.4385 25.803 L1.8644 22.3712 L2.4259 18.7407 L3.1055 15.1797 L3.9178 11.6968 L4.8777 8.3006 L6 5 L7.2944 1.8006 L8.7512 -1.3032 L10.3555 -4.3203 L12.0926 -7.2593 L13.9478 -10.1288 L15.9062 -12.9375 L17.5535 -15.1557" clip-path="url(#clipPath2)"/>
      <path fill="none" stroke-width="1" d="M2.7237 25.7652 L2.7812 25.375 L3.4159 21.5955 L4.1296 17.8889 L4.9336 14.2656 L5.8391 10.7361 L6.8575 7.3108 L8 4 L9.2742 0.8108 L10.6725 -2.2639 L12.1836 -5.2344 L13.7963 -8.1111 L15.4993 -10.9045 L17.2812 -13.625 L17.7292 -14.2687" clip-path="url(#clipPath2)" stroke="maroon"/>
      <path fill="none" stroke-width="1" d="M-5.7248 25.7537 L-16.5652 -27.3022" clip-path="url(#clipPath2)"/>
      <path fill="none" stroke-width="1" d="M10.7181 -34.9341 L10.4417 -35.0258 L7.9815 -35.8519 L5.5977 -36.6641 L3.2998 -37.4606 L1.0974 -38.2399 L-1 -39 L-2.986 -39.7399 L-4.8669 -40.4606 L-6.6523 -41.1641 L-7.0507 -41.3253" clip-path="url(#clipPath2)"/>
      <path fill="none" stroke-width="1" d="M11.7576 -37.8308 L10.537 -38.4074 L8.3398 -39.4062 L6.1817 -40.3426 L4.067 -41.2095 L2 -42 L-0.0163 -42.7095 L-1.985 -43.3426 L-3.9102 -43.9062 L-5.6489 -44.3683" clip-path="url(#clipPath2)" stroke="maroon"/>
      <path fill="none" stroke-width="1" d="M21.1256 42.0794 L22.4062 41.6562 L25.7325 40.5508 L28.8704 39.5 L31.793 38.5117 L34.4734 37.5938 L36.8847 36.7539 L39 36 L40.3792 35.4926" clip-path="url(#clipPath2)"/>
      <path fill="none" stroke-width="1" d="M37.1831 -10.1784 L48.971 17.9747" clip-path="url(#clipPath2)"/>
      <path fill="none" stroke-width="1" d="M21.1403 40.2972 L22.6273 39.706 L24.8232 38.8435 L27 38 L29.1565 37.1768 L31.294 36.3727 L33.4141 35.5859 L35.5185 34.8148 L37.6091 34.0576 L39.6875 33.3125 L40.4307 33.0485" clip-path="url(#clipPath2)" stroke="maroon"/>
      <path fill="none" stroke-width="1" d="M59.4136 17.6601 L67.3567 -3.4009" clip-path="url(#clipPath2)"/>
      <path fill="none" stroke-width="1" d="M67.6524 24.9545 L86.9724 16.2169" clip-path="url(#clipPath2)"/>
      <path fill="none" d="M78.1022 -6.0789 L78.6667 -6.0741 L80.0247 -6.0275 L81.3438 -5.9375 L82.6159 -5.7954 L83.8333 -5.5926 L84.9883 -5.3203 L86.0729 -4.9699 L87.0794 -4.5327 L88 -4 L88.8294 -3.366 L89.5729 -2.6366 L90.2383 -1.8203 L90.8333 -0.9259 L91.3659 0.0379 L91.8438 1.0625 L92.2747 2.1392 L92.6667 3.2593 L92.8808 3.9449" clip-path="url(#clipPath2)"/>
      <path fill="none" stroke-width="1" d="M10.7448 -22.4283 L7.8397 -21.3864 L3.875 -19.9688 L0.0561 -18.6084 L-3.5926 -17.3148 L-7.0469 -16.0977 L-10.2824 -14.9664 L-13.2749 -13.9307 L-16 -13 L-18.4416 -12.1807 L-20.6157 -11.4664 L-22.5469 -10.8477 L-24.2593 -10.3148 L-25.7772 -9.8584 L-27.125 -9.4688 L-28.327 -9.1364 L-28.4958 -9.092" clip-path="url(#clipPath2)" stroke="maroon"/>
      <path fill="none" stroke-width="1" d="M-13.7968 29.7796 L-32.5408 0.8851" clip-path="url(#clipPath2)" stroke="maroon"/>
    </g>
  </g>
</svg>
